<?xml version="1.0" encoding="UTF-8" standalone="no"?><svg xmlns="http://www.w3.org/2000/svg" xmlns:xlink="http://www.w3.org/1999/xlink" contentScriptType="application/ecmascript" contentStyleType="text/css" height="422px" preserveAspectRatio="none" style="width:256px;height:422px;" version="1.1" viewBox="0 0 256 422"
    width="256px" zoomAndPan="magnify"><defs><filter height="300%" id="f1swjvqtwwla83" width="300%" x="-1" y="-1"><feGaussianBlur result="blurOut" stdDeviation="2.0"/><feColorMatrix in="blurOut" result="blurOut2" type="matrix" values="0 0 0 0 0 0 0 0 0 0 0 0 0 0 0 0 0 0 .4 0"/><feOffset dx="4.0" dy="4.0" in="blurOut2" result="blurOut3"/><feBlend in="SourceGraphic" in2="blurOut3" mode="normal"/></filter></defs><g><!--cluster Map 1--><polygon fill="#FFFFFF" filter="url(#f1swjvqtwwla83)" points="22,24,70,24,77,47.6094,194,47.6094,194,235,22,235,22,24" style="stroke: #000000; stroke-width: 1.5;"/><line style="stroke: #000000; stroke-width: 1.5;" x1="22" x2="77" y1="47.6094" y2="47.6094"/><text fill="#000000" font-family="sans-serif" font-size="14" font-weight="bold" lengthAdjust="spacingAndGlyphs" textLength="42" x="26" y="40.5332">Map 1</text><!--cluster Map 2--><polygon fill="#FFFFFF" filter="url(#f1swjvqtwwla83)" points="62,259,110,259,117,282.6094,234,282.6094,234,410,62,410,62,259" style="stroke: #000000; stroke-width: 1.5;"/><line style="stroke: #000000; stroke-width: 1.5;" x1="62" x2="117" y1="282.6094" y2="282.6094"/><text fill="#000000" font-family="sans-serif" font-size="14" font-weight="bold" lengthAdjust="spacingAndGlyphs" textLength="42" x="66" y="275.5332">Map 2</text><ellipse cx="108" cy="70" fill="#000000" filter="url(#f1swjvqtwwla83)" rx="10" ry="10" style="stroke: none; stroke-width: 1.0;"/><polygon fill="#FEFECE" filter="url(#f1swjvqtwwla83)" points="108,120,120,132,108,144,96,132,108,120" style="stroke: #A80036; stroke-width: 1.5;"/><rect fill="#FEFECE" filter="url(#f1swjvqtwwla83)" height="35.0938" rx="12.5" ry="12.5" style="stroke: #A80036; stroke-width: 1.5;" width="60" x="38" y="184"/><text fill="#000000" font-family="sans-serif" font-size="12" lengthAdjust="spacingAndGlyphs" textLength="40" x="48" y="206.457">Node 1</text><rect fill="#FEFECE" filter="url(#f1swjvqtwwla83)" height="35.0938" rx="12.5" ry="12.5" style="stroke: #A80036; stroke-width: 1.5;" width="60" x="118" y="184"/><text fill="#000000" font-family="sans-serif" font-size="12" lengthAdjust="spacingAndGlyphs" textLength="40" x="128" y="206.457">Node 2</text><polygon fill="#FEFECE" filter="url(#f1swjvqtwwla83)" points="148,295,160,307,148,319,136,307,148,295" style="stroke: #A80036; stroke-width: 1.5;"/><rect fill="#FEFECE" filter="url(#f1swjvqtwwla83)" height="35.0938" rx="12.5" ry="12.5" style="stroke: #A80036; stroke-width: 1.5;" width="60" x="78" y="359"/><text fill="#000000" font-family="sans-serif" font-size="12" lengthAdjust="spacingAndGlyphs" textLength="40" x="88" y="381.457">Node 3</text><rect fill="#FEFECE" filter="url(#f1swjvqtwwla83)" height="35.0938" rx="12.5" ry="12.5" style="stroke: #A80036; stroke-width: 1.5;" width="60" x="158" y="359"/><text fill="#000000" font-family="sans-serif" font-size="12" lengthAdjust="spacingAndGlyphs" textLength="40" x="168" y="381.457">Node 4</text><!--link start to #4--><path d="M108,80.113 C108,89.241 108,103.49 108,114.591 " fill="none" id="start-#4" style="stroke: #A80036; stroke-width: 1.0;"/><polygon fill="#A80036" points="108,119.752,112,110.752,108,114.752,104,110.752,108,119.752" style="stroke: #A80036; stroke-width: 1.0;"/><text fill="#000000" font-family="sans-serif" font-size="11" lengthAdjust="spacingAndGlyphs" textLength="0" x="107.3063" y="109.6933"/><!--link #4 to Node 1--><path d="M103.87,139.969 C98.3823,149.23 88.4458,165.998 80.4203,179.541 " fill="none" id="#4-Node 1" style="stroke: #A80036; stroke-width: 1.0;"/><polygon fill="#A80036" points="77.7811,183.994,85.81,178.2899,80.3297,179.6923,78.9273,174.2121,77.7811,183.994" style="stroke: #A80036; stroke-width: 1.0;"/><!--link #4 to Node 2--><path d="M112.13,139.969 C117.618,149.23 127.554,165.998 135.58,179.541 " fill="none" id="#4-Node 2" style="stroke: #A80036; stroke-width: 1.0;"/><polygon fill="#A80036" points="138.219,183.994,137.0727,174.2121,135.6703,179.6924,130.19,178.29,138.219,183.994" style="stroke: #A80036; stroke-width: 1.0;"/><!--link Node 2 to #12--><path d="M148,219.129 C148,238.559 148,270.497 148,289.759 " fill="none" id="Node 2-#12" style="stroke: #A80036; stroke-width: 1.0;"/><polygon fill="#A80036" points="148,294.835,152,285.835,148,289.835,144,285.835,148,294.835" style="stroke: #A80036; stroke-width: 1.0;"/><text fill="#000000" font-family="sans-serif" font-size="11" lengthAdjust="spacingAndGlyphs" textLength="0" x="147.2688" y="284.3585"/><!--link #12 to Node 3--><path d="M143.87,314.969 C138.382,324.23 128.446,340.9977 120.42,354.5407 " fill="none" id="#12-Node 3" style="stroke: #A80036; stroke-width: 1.0;"/><polygon fill="#A80036" points="117.781,358.9944,125.8105,353.2912,120.3301,354.693,118.9283,349.2126,117.781,358.9944" style="stroke: #A80036; stroke-width: 1.0;"/><!--link #12 to Node 4--><path d="M152.13,314.969 C157.618,324.23 167.554,340.9977 175.58,354.5407 " fill="none" id="#12-Node 4" style="stroke: #A80036; stroke-width: 1.0;"/><polygon fill="#A80036" points="178.219,358.9944,177.0717,349.2126,175.6699,354.693,170.1895,353.2912,178.219,358.9944" style="stroke: #A80036; stroke-width: 1.0;"/><!--
@startuml

partition "Map 1" {
(*) - -> if "" then
  - -> "Node 1"
else
  - -> "Node 2"
endif
}

partition "Map 2" {
"Node 2" - -> if "" then
    - -> "Node 3"
  else
    - -> "Node 4"
  endif
}

@enduml

PlantUML version 1.2018.01(Sun Jan 28 19:08:22 CET 2018)
(GPL source distribution)
Java Runtime: Java(TM) SE Runtime Environment
JVM: Java HotSpot(TM) 64-Bit Server VM
Java Version: 9.0.4+11
Operating System: Windows 10
OS Version: 10.0
Default Encoding: Cp1252
Language: en
Country: GB
--></g></svg>