<?xml version="1.0" encoding="UTF-8" standalone="no"?><svg xmlns="http://www.w3.org/2000/svg" xmlns:xlink="http://www.w3.org/1999/xlink" contentScriptType="application/ecmascript" contentStyleType="text/css" height="322px" preserveAspectRatio="none" style="width:216px;height:322px;" version="1.1" viewBox="0 0 216 322"
    width="216px" zoomAndPan="magnify"><defs><filter height="300%" id="f17ufr1ck4uiet" width="300%" x="-1" y="-1"><feGaussianBlur result="blurOut" stdDeviation="2.0"/><feColorMatrix in="blurOut" result="blurOut2" type="matrix" values="0 0 0 0 0 0 0 0 0 0 0 0 0 0 0 0 0 0 .4 0"/><feOffset dx="4.0" dy="4.0" in="blurOut2" result="blurOut3"/><feBlend in="SourceGraphic" in2="blurOut3" mode="normal"/></filter></defs><g><!--cluster Map--><polygon fill="#FFFFFF" filter="url(#f17ufr1ck4uiet)" points="22,24,58,24,65,47.6094,194,47.6094,194,310,22,310,22,24" style="stroke: #000000; stroke-width: 1.5;"/><line style="stroke: #000000; stroke-width: 1.5;" x1="22" x2="65" y1="47.6094" y2="47.6094"/><text fill="#000000" font-family="sans-serif" font-size="14" font-weight="bold" lengthAdjust="spacingAndGlyphs" textLength="30" x="26" y="40.5332">Map</text><ellipse cx="108" cy="70" fill="#000000" filter="url(#f17ufr1ck4uiet)" rx="10" ry="10" style="stroke: none; stroke-width: 1.0;"/><polygon fill="#FEFECE" filter="url(#f17ufr1ck4uiet)" points="108,120,120,132,108,144,96,132,108,120" style="stroke: #A80036; stroke-width: 1.5;"/><rect fill="#FEFECE" filter="url(#f17ufr1ck4uiet)" height="35.0938" rx="12.5" ry="12.5" style="stroke: #A80036; stroke-width: 1.5;" width="60" x="47" y="184"/><text fill="#000000" font-family="sans-serif" font-size="12" lengthAdjust="spacingAndGlyphs" textLength="40" x="57" y="206.457">Node 2</text><polygon fill="#FEFECE" filter="url(#f17ufr1ck4uiet)" points="139,189.5,151,201.5,139,213.5,127,201.5,139,189.5" style="stroke: #A80036; stroke-width: 1.5;"/><rect fill="#FEFECE" filter="url(#f17ufr1ck4uiet)" height="35.0938" rx="12.5" ry="12.5" style="stroke: #A80036; stroke-width: 1.5;" width="60" x="38" y="259"/><text fill="#000000" font-family="sans-serif" font-size="12" lengthAdjust="spacingAndGlyphs" textLength="40" x="48" y="281.457">Node 4</text><rect fill="#FEFECE" filter="url(#f17ufr1ck4uiet)" height="35.0938" rx="12.5" ry="12.5" style="stroke: #A80036; stroke-width: 1.5;" width="60" x="118" y="259"/><text fill="#000000" font-family="sans-serif" font-size="12" lengthAdjust="spacingAndGlyphs" textLength="40" x="128" y="281.457">Node 5</text><!--link start to #4--><path d="M108,80.113 C108,89.241 108,103.49 108,114.591 " fill="none" id="start-#4" style="stroke: #A80036; stroke-width: 1.0;"/><polygon fill="#A80036" points="108,119.752,112,110.752,108,114.752,104,110.752,108,119.752" style="stroke: #A80036; stroke-width: 1.0;"/><text fill="#000000" font-family="sans-serif" font-size="11" lengthAdjust="spacingAndGlyphs" textLength="34" x="66.1375" y="109.6933">Node 1</text><!--link #4 to Node 2--><path d="M104.4439,140.743 C100.1663,150.057 92.8093,166.077 86.7887,179.186 " fill="none" id="#4-Node 2" style="stroke: #A80036; stroke-width: 1.0;"/><polygon fill="#A80036" points="84.6393,183.866,92.0309,177.3572,86.7264,179.3224,84.7612,174.0179,84.6393,183.866" style="stroke: #A80036; stroke-width: 1.0;"/><!--link #4 to #9--><path d="M111.556,140.743 C116.882,152.34 126.981,174.33 133.331,188.157 " fill="none" id="#4-#9" style="stroke: #A80036; stroke-width: 1.0;"/><polygon fill="#A80036" points="135.485,192.847,135.3636,182.9989,133.3981,188.3033,128.0937,186.3379,135.485,192.847" style="stroke: #A80036; stroke-width: 1.0;"/><text fill="#000000" font-family="sans-serif" font-size="11" lengthAdjust="spacingAndGlyphs" textLength="34" x="146.6101" y="179.1095">Node 3</text><!--link #9 to Node 4--><path d="M133.429,208.228 C123.785,218.144 103.5335,238.9655 88.0995,254.8343 " fill="none" id="#9-Node 4" style="stroke: #A80036; stroke-width: 1.0;"/><polygon fill="#A80036" points="84.2888,258.7523,93.4311,255.0892,87.7748,255.1679,87.696,249.5116,84.2888,258.7523" style="stroke: #A80036; stroke-width: 1.0;"/><!--link #9 to Node 5--><path d="M140.214,212.345 C141.51,222.858 143.606,239.8588 145.297,253.5742 " fill="none" id="#9-Node 5" style="stroke: #A80036; stroke-width: 1.0;"/><polygon fill="#A80036" points="145.946,258.8395,148.8147,249.4177,145.3342,253.8771,140.8748,250.3966,145.946,258.8395" style="stroke: #A80036; stroke-width: 1.0;"/><!--
@startuml


partition Map {
(*) - -> if "Node 1" then
  - -> "Node 2"
else
  if "Node 3" then
    - -> "Node 4"
  else
    - -> "Node 5"
  endif
endif
}


@enduml

PlantUML version 1.2018.01(Sun Jan 28 19:08:22 CET 2018)
(GPL source distribution)
Java Runtime: Java(TM) SE Runtime Environment
JVM: Java HotSpot(TM) 64-Bit Server VM
Java Version: 9.0.4+11
Operating System: Windows 10
OS Version: 10.0
Default Encoding: Cp1252
Language: en
Country: GB
--></g></svg>