<?xml version="1.0" encoding="UTF-8" standalone="no"?><svg xmlns="http://www.w3.org/2000/svg" xmlns:xlink="http://www.w3.org/1999/xlink" contentScriptType="application/ecmascript" contentStyleType="text/css" height="178px" preserveAspectRatio="none" style="width:133px;height:178px;" version="1.1" viewBox="0 0 133 178"
    width="133px" zoomAndPan="magnify"><defs><filter height="300%" id="ftdyuui9kgnak" width="300%" x="-1" y="-1"><feGaussianBlur result="blurOut" stdDeviation="2.0"/><feColorMatrix in="blurOut" result="blurOut2" type="matrix" values="0 0 0 0 0 0 0 0 0 0 0 0 0 0 0 0 0 0 .4 0"/><feOffset dx="4.0" dy="4.0" in="blurOut2" result="blurOut3"/><feBlend in="SourceGraphic" in2="blurOut3" mode="normal"/></filter></defs><g><ellipse cx="65.5" cy="18" fill="#000000" filter="url(#ftdyuui9kgnak)" rx="10" ry="10" style="stroke: none; stroke-width: 1.0;"/><polygon fill="#FEFECE" filter="url(#ftdyuui9kgnak)" points="65.5,68,77.5,80,65.5,92,53.5,80,65.5,68" style="stroke: #A80036; stroke-width: 1.5;"/><rect fill="#FEFECE" filter="url(#ftdyuui9kgnak)" height="35.0938" rx="12.5" ry="12.5" style="stroke: #A80036; stroke-width: 1.5;" width="51" x="6" y="132"/><text fill="#000000" font-family="sans-serif" font-size="12" lengthAdjust="spacingAndGlyphs" textLength="31" x="16" y="154.457">False</text><rect fill="#FEFECE" filter="url(#ftdyuui9kgnak)" height="35.0938" rx="12.5" ry="12.5" style="stroke: #A80036; stroke-width: 1.5;" width="45" x="77" y="132"/><text fill="#000000" font-family="sans-serif" font-size="12" lengthAdjust="spacingAndGlyphs" textLength="25" x="87" y="154.457">True</text><!--link start to #3--><path d="M65.5,28.113 C65.5,37.241 65.5,51.49 65.5,62.591 " fill="none" id="start-#3" style="stroke: #A80036; stroke-width: 1.0;"/><polygon fill="#A80036" points="65.5,67.7519,69.5,58.7519,65.5,62.7519,61.5,58.7519,65.5,67.7519" style="stroke: #A80036; stroke-width: 1.0;"/><text fill="#000000" font-family="sans-serif" font-size="11" lengthAdjust="spacingAndGlyphs" textLength="32" x="26.1" y="57.6933">V &lt;= T</text><!--link #3 to False--><path d="M61.7315,88.4816 C57.0503,97.7751 48.8661,114.0231 42.1928,127.2716 " fill="none" id="#3-False" style="stroke: #A80036; stroke-width: 1.0;"/><polygon fill="#A80036" points="39.8119,131.9984,47.433,125.7599,42.0612,127.5329,40.2882,122.1611,39.8119,131.9984" style="stroke: #A80036; stroke-width: 1.0;"/><!--link #3 to True--><path d="M69.2685,88.4816 C73.9497,97.7751 82.1339,114.0231 88.8072,127.2716 " fill="none" id="#3-True" style="stroke: #A80036; stroke-width: 1.0;"/><polygon fill="#A80036" points="91.1881,131.9984,90.7118,122.1611,88.9388,127.5329,83.567,125.7599,91.1881,131.9984" style="stroke: #A80036; stroke-width: 1.0;"/><!--
@startuml

(*) - -> if "V <= T" then
    - -> "False"
    else
    - -> "True"
endif
@enduml

PlantUML version 1.2018.01(Sun Jan 28 19:08:22 CET 2018)
(GPL source distribution)
Java Runtime: Java(TM) SE Runtime Environment
JVM: Java HotSpot(TM) 64-Bit Server VM
Java Version: 9.0.4+11
Operating System: Windows 10
OS Version: 10.0
Default Encoding: Cp1252
Language: en
Country: GB
--></g></svg>