<?xml version="1.0" encoding="UTF-8" standalone="no"?><svg xmlns="http://www.w3.org/2000/svg" xmlns:xlink="http://www.w3.org/1999/xlink" contentScriptType="application/ecmascript" contentStyleType="text/css" height="317px" preserveAspectRatio="none" style="width:197px;height:317px;" version="1.1" viewBox="0 0 197 317"
    width="197px" zoomAndPan="magnify"><defs><filter height="300%" id="f1j7lksytcv15e" width="300%" x="-1" y="-1"><feGaussianBlur result="blurOut" stdDeviation="2.0"/><feColorMatrix in="blurOut" result="blurOut2" type="matrix" values="0 0 0 0 0 0 0 0 0 0 0 0 0 0 0 0 0 0 .4 0"/><feOffset dx="4.0" dy="4.0" in="blurOut2" result="blurOut3"/><feBlend in="SourceGraphic" in2="blurOut3" mode="normal"/></filter></defs><g><ellipse cx="76" cy="18" fill="#000000" filter="url(#f1j7lksytcv15e)" rx="10" ry="10" style="stroke: none; stroke-width: 1.0;"/><polygon fill="#FEFECE" filter="url(#f1j7lksytcv15e)" points="76,68,88,80,76,92,64,80,76,68" style="stroke: #A80036; stroke-width: 1.5;"/><rect fill="#FEFECE" filter="url(#f1j7lksytcv15e)" height="35.0938" rx="12.5" ry="12.5" style="stroke: #A80036; stroke-width: 1.5;" width="60" x="6" y="132"/><text fill="#000000" font-family="sans-serif" font-size="12" lengthAdjust="spacingAndGlyphs" textLength="40" x="16" y="154.457">Node 1</text><rect fill="#FEFECE" filter="url(#f1j7lksytcv15e)" height="35.0938" rx="12.5" ry="12.5" style="stroke: #A80036; stroke-width: 1.5;" width="60" x="86" y="132"/><text fill="#000000" font-family="sans-serif" font-size="12" lengthAdjust="spacingAndGlyphs" textLength="40" x="96" y="154.457">Node 2</text><polygon fill="#FEFECE" filter="url(#f1j7lksytcv15e)" points="116,207,128,219,116,231,104,219,116,207" style="stroke: #A80036; stroke-width: 1.5;"/><rect fill="#FEFECE" filter="url(#f1j7lksytcv15e)" height="35.0938" rx="12.5" ry="12.5" style="stroke: #A80036; stroke-width: 1.5;" width="60" x="46" y="271"/><text fill="#000000" font-family="sans-serif" font-size="12" lengthAdjust="spacingAndGlyphs" textLength="40" x="56" y="293.457">Node 3</text><rect fill="#FEFECE" filter="url(#f1j7lksytcv15e)" height="35.0938" rx="12.5" ry="12.5" style="stroke: #A80036; stroke-width: 1.5;" width="60" x="126" y="271"/><text fill="#000000" font-family="sans-serif" font-size="12" lengthAdjust="spacingAndGlyphs" textLength="40" x="136" y="293.457">Node 4</text><!--link start to #3--><path d="M76,28.113 C76,37.241 76,51.49 76,62.591 " fill="none" id="start-#3" style="stroke: #A80036; stroke-width: 1.0;"/><polygon fill="#A80036" points="76,67.752,80,58.752,76,62.752,72,58.752,76,67.752" style="stroke: #A80036; stroke-width: 1.0;"/><text fill="#000000" font-family="sans-serif" font-size="11" lengthAdjust="spacingAndGlyphs" textLength="0" x="75.3063" y="57.6933"/><!--link #3 to Node 1--><path d="M71.87,87.969 C66.3823,97.23 56.4458,113.998 48.4203,127.541 " fill="none" id="#3-Node 1" style="stroke: #A80036; stroke-width: 1.0;"/><polygon fill="#A80036" points="45.7811,131.994,53.81,126.2899,48.3297,127.6923,46.9273,122.2121,45.7811,131.994" style="stroke: #A80036; stroke-width: 1.0;"/><!--link #3 to Node 2--><path d="M80.13,87.969 C85.6177,97.23 95.5542,113.998 103.5797,127.541 " fill="none" id="#3-Node 2" style="stroke: #A80036; stroke-width: 1.0; stroke-dasharray: 1.0,3.0;"/><polygon fill="#A80036" points="106.219,131.994,105.0728,122.2121,103.6704,127.6923,98.1901,126.2899,106.219,131.994" style="stroke: #A80036; stroke-width: 1.0;"/><!--link Node 2 to #10--><path d="M116,167.185 C116,177.691 116,191.19 116,201.634 " fill="none" id="Node 2-#10" style="stroke: #A80036; stroke-width: 1.0;"/><polygon fill="#A80036" points="116,206.7851,120,197.7851,116,201.7851,112,197.7851,116,206.7851" style="stroke: #A80036; stroke-width: 1.0;"/><text fill="#000000" font-family="sans-serif" font-size="11" lengthAdjust="spacingAndGlyphs" textLength="0" x="115.3063" y="196.7416"/><!--link #10 to Node 3--><path d="M111.87,226.9694 C106.382,236.2299 96.4458,252.9977 88.4203,266.5407 " fill="none" id="#10-Node 3" style="stroke: #A80036; stroke-width: 1.0; stroke-dasharray: 1.0,3.0;"/><polygon fill="#A80036" points="85.7811,270.9944,93.8105,265.2911,88.3302,266.693,86.9283,261.2126,85.7811,270.9944" style="stroke: #A80036; stroke-width: 1.0;"/><!--link #10 to Node 4--><path d="M120.13,226.9694 C125.618,236.2299 135.554,252.9977 143.58,266.5407 " fill="none" id="#10-Node 4" style="stroke: #A80036; stroke-width: 1.0;"/><polygon fill="#A80036" points="146.219,270.9944,145.0717,261.2126,143.6699,266.693,138.1895,265.2912,146.219,270.9944" style="stroke: #A80036; stroke-width: 1.0;"/><!--
@startuml

(*) - -> if "" then
  - -> "Node 1"
else
  ..> "Node 2"
endif

"Node 2" - -> if "" then
    ..> "Node 3"
  else
    - -> "Node 4"
  endif

@enduml

PlantUML version 1.2018.01(Sun Jan 28 19:08:22 CET 2018)
(GPL source distribution)
Java Runtime: Java(TM) SE Runtime Environment
JVM: Java HotSpot(TM) 64-Bit Server VM
Java Version: 9.0.4+11
Operating System: Windows 10
OS Version: 10.0
Default Encoding: Cp1252
Language: en
Country: GB
--></g></svg>